<?xml version="1.0" encoding="UTF-8"?>
<!DOCTYPE svg PUBLIC "-//W3C//DTD SVG 1.1//EN" "http://www.w3.org/Graphics/SVG/1.1/DTD/svg11.dtd">
<!-- Creator: CorelDRAW X8 -->
<svg xmlns="http://www.w3.org/2000/svg" xml:space="preserve" width="65.8132mm" height="64.2051mm" version="1.1" style="shape-rendering:geometricPrecision; text-rendering:geometricPrecision; image-rendering:optimizeQuality; fill-rule:evenodd; clip-rule:evenodd"
viewBox="0 0 6129 5979"
 xmlns:xlink="http://www.w3.org/1999/xlink">
 <defs>
  <style type="text/css">
   <![CDATA[
    .fil0 {fill:#B9808F}
   ]]>
  </style>
 </defs>
 <g id="Layer_x0020_1">
  <metadata id="CorelCorpID_0Corel-Layer"/>
  <g id="_1735419957040">
   <path class="fil0" d="M0 106c419,-10 639,505 769,836 50,130 101,257 152,389 551,1416 1113,2833 1656,4254 22,57 134,359 154,387l100 1c35,-103 145,-294 151,-393 16,-281 90,-609 248,-834 84,-119 147,-174 203,-345 130,-398 -14,-833 -347,-1065 -62,-44 -202,-35 -381,-303 -161,-240 -208,-546 -236,-576 -267,-292 -197,-457 -242,-570 -90,-220 -196,-449 -278,-676 -11,-29 -28,-64 -38,-99 -41,-141 -38,-353 2,-492 61,-210 204,-342 378,-434 64,-34 131,-53 193,-84l5 -100c-727,6 -1443,12 -2169,4 -96,-2 -224,-10 -315,-4l-5 104z"/>
   <path class="fil0" d="M3005 5979l219 0c69,-196 228,-570 314,-783 106,-263 210,-521 315,-781 212,-521 421,-1040 635,-1559 214,-519 422,-1038 638,-1554 128,-306 172,-449 370,-727 138,-194 370,-447 627,-479l6 -95 -718 13c-27,36 -126,306 -152,371l-449 1121c-200,499 -402,994 -600,1492l-906 2235c-37,90 -296,711 -299,746z"/>
   <path class="fil0" d="M4071 117c160,36 338,147 419,231 100,104 180,260 186,467 7,230 -51,347 -122,530l-229 590c-12,43 -18,90 -29,134 -73,290 -132,237 -221,428 -33,69 -60,166 -86,239 -119,337 -278,585 -685,622l59 74c22,27 34,49 53,82 120,214 128,432 137,676 74,-158 141,-349 208,-517 71,-176 139,-348 209,-522l1262 -3136 -1160 -2 -1 104z"/>
  </g>
 </g>
</svg>
